<?xml version="1.0" encoding="utf-8"?>
<!-- Generator: Adobe Illustrator 22.1.0, SVG Export Plug-In . SVG Version: 6.00 Build 0)  -->
<svg version="1.1" id="Layer_1" xmlns="http://www.w3.org/2000/svg" xmlns:xlink="http://www.w3.org/1999/xlink" x="0px" y="0px"
	 viewBox="0 0 286 425" style="enable-background:new 0 0 286 425;" xml:space="preserve">
<style type="text/css">
	.st0{fill:#FFFFFF;}
	.st1{fill:#67D887;stroke:#67D887;}
	.st2{fill:#67A9D8;fill-opacity:0.8;}
	.st3{fill:#67A9D8;stroke:#67A9D8;}
	.st4{fill:#67A9D8;fill-opacity:0.6;}
	.st5{fill:#67D887;fill-opacity:0.8;}
	.st6{fill:#A4E8B7;}
	.st7{fill:#F1D46B;stroke:#F1D46B;}
	.st8{fill:#F1D46B;fill-opacity:0.8;}
	.st9{fill:#F7E5A6;}
	.st10{fill:#F17B6B;stroke:#F17B6B;}
	.st11{fill:#F17B6B;fill-opacity:0.8;}
	.st12{fill:#F7B0A6;}
	.st13{font-family:'MyriadPro-Bold';}
	.st14{font-size:20px;}
</style>
<rect class="st0" width="286" height="425"/>
<rect x="23.5" y="333.5" class="st1" width="193" height="71"/>
<path class="st2" d="M67,291h194l-44,42H23L67,291z"/>
<path class="st0" d="M80,370h-1.7v-17H80V370z M85.9,358.8c0,0.3,0.1,0.6,0.1,1c0,0.4,0,0.7,0,0.9h0c0.3-0.7,0.8-1.2,1.6-1.6
	c0.7-0.4,1.5-0.6,2.3-0.6c1.4,0,2.5,0.4,3.2,1.3c0.7,0.8,1.1,2,1.1,3.4v6.9h-1.6v-6.2c0-0.6,0-1.1-0.1-1.6c-0.1-0.5-0.3-0.9-0.5-1.2
	c-0.2-0.4-0.5-0.6-0.9-0.8c-0.4-0.2-0.9-0.3-1.5-0.3c-0.4,0-0.9,0.1-1.3,0.3c-0.4,0.2-0.8,0.4-1.1,0.8c-0.3,0.4-0.6,0.8-0.8,1.4
	c-0.2,0.5-0.3,1.2-0.3,1.9v5.8h-1.6v-8.8c0-0.3,0-0.7,0-1.2c0-0.5,0-0.9-0.1-1.3H85.9z M103.4,360.1h-3.2v6.6c0,0.4,0,0.8,0.1,1
	c0.1,0.3,0.2,0.5,0.3,0.6c0.2,0.1,0.3,0.2,0.6,0.3c0.2,0,0.4,0.1,0.7,0.1c0.2,0,0.5,0,0.7-0.1c0.3-0.1,0.5-0.2,0.7-0.3l0.1,1.4
	c-0.3,0.1-0.6,0.2-0.9,0.2c-0.3,0.1-0.6,0.1-1,0.1c-0.3,0-0.6,0-1-0.1c-0.3-0.1-0.6-0.2-0.9-0.5s-0.5-0.5-0.7-0.9
	c-0.2-0.4-0.3-0.9-0.3-1.5v-7h-2.3v-1.4h2.3v-3.2h1.6v3.2h3.2V360.1z M114.5,363.5c0-1.1-0.4-1.9-1-2.6c-0.6-0.7-1.5-1.1-2.7-1.1
	c-0.5,0-1,0.1-1.5,0.3c-0.5,0.2-0.9,0.5-1.2,0.8c-0.4,0.3-0.6,0.7-0.8,1.2c-0.2,0.4-0.3,0.9-0.4,1.4H114.5z M116.2,364
	c0,0.1,0,0.2,0,0.4c0,0.1,0,0.3,0,0.4h-9.3c0,0.6,0.1,1.1,0.3,1.6s0.5,0.9,0.9,1.3c0.4,0.4,0.8,0.7,1.3,0.9c0.5,0.2,1,0.3,1.6,0.3
	c0.8,0,1.6-0.2,2.2-0.6c0.6-0.4,1.1-0.9,1.4-1.4l1.2,1c-0.7,0.8-1.4,1.5-2.2,1.8c-0.8,0.4-1.7,0.6-2.6,0.6c-0.8,0-1.6-0.1-2.3-0.4
	c-0.7-0.3-1.3-0.7-1.8-1.2c-0.5-0.5-0.9-1.2-1.2-1.9c-0.3-0.7-0.4-1.5-0.4-2.4s0.1-1.6,0.4-2.4c0.3-0.7,0.7-1.3,1.2-1.9
	c0.5-0.5,1.1-0.9,1.8-1.2c0.7-0.3,1.4-0.5,2.2-0.5c0.9,0,1.7,0.2,2.3,0.5c0.7,0.3,1.2,0.7,1.7,1.2c0.4,0.5,0.8,1.1,1,1.8
	C116.1,362.6,116.2,363.3,116.2,364z M119.7,361.2c0-0.3,0-0.7,0-1.2c0-0.5,0-0.9-0.1-1.3h1.6c0,0.3,0.1,0.6,0.1,1s0,0.7,0,0.9h0
	c0.3-0.7,0.8-1.2,1.4-1.6c0.6-0.4,1.4-0.6,2.2-0.6c0.2,0,0.4,0,0.6,0c0.2,0,0.4,0,0.5,0.1l-0.2,1.5c-0.1,0-0.3-0.1-0.5-0.1
	c-0.2,0-0.4,0-0.7,0c-0.4,0-0.8,0.1-1.2,0.2s-0.8,0.4-1.1,0.8c-0.3,0.3-0.5,0.8-0.7,1.3c-0.2,0.5-0.3,1.2-0.3,1.9v5.8h-1.6V361.2z
	 M129.8,358.8c0,0.3,0.1,0.6,0.1,1c0,0.4,0,0.7,0,0.9h0c0.3-0.7,0.8-1.2,1.6-1.6c0.7-0.4,1.5-0.6,2.3-0.6c1.4,0,2.5,0.4,3.2,1.3
	c0.7,0.8,1.1,2,1.1,3.4v6.9h-1.6v-6.2c0-0.6,0-1.1-0.1-1.6c-0.1-0.5-0.3-0.9-0.5-1.2c-0.2-0.4-0.5-0.6-0.9-0.8
	c-0.4-0.2-0.9-0.3-1.5-0.3c-0.4,0-0.9,0.1-1.3,0.3c-0.4,0.2-0.8,0.4-1.1,0.8c-0.3,0.4-0.6,0.8-0.8,1.4c-0.2,0.5-0.3,1.2-0.3,1.9v5.8
	h-1.6v-8.8c0-0.3,0-0.7,0-1.2c0-0.5,0-0.9-0.1-1.3H129.8z M150.9,363.5c0-1.1-0.4-1.9-1-2.6c-0.6-0.7-1.5-1.1-2.7-1.1
	c-0.5,0-1,0.1-1.5,0.3c-0.5,0.2-0.9,0.5-1.2,0.8c-0.4,0.3-0.6,0.7-0.8,1.2c-0.2,0.4-0.3,0.9-0.4,1.4H150.9z M152.5,364
	c0,0.1,0,0.2,0,0.4c0,0.1,0,0.3,0,0.4h-9.3c0,0.6,0.1,1.1,0.3,1.6c0.2,0.5,0.5,0.9,0.9,1.3c0.4,0.4,0.8,0.7,1.3,0.9
	c0.5,0.2,1,0.3,1.6,0.3c0.8,0,1.6-0.2,2.2-0.6c0.6-0.4,1.1-0.9,1.4-1.4l1.2,1c-0.7,0.8-1.4,1.5-2.2,1.8c-0.8,0.4-1.7,0.6-2.6,0.6
	c-0.8,0-1.6-0.1-2.3-0.4c-0.7-0.3-1.3-0.7-1.8-1.2c-0.5-0.5-0.9-1.2-1.2-1.9c-0.3-0.7-0.4-1.5-0.4-2.4s0.1-1.6,0.4-2.4
	s0.7-1.3,1.2-1.9c0.5-0.5,1.1-0.9,1.8-1.2c0.7-0.3,1.4-0.5,2.2-0.5c0.9,0,1.7,0.2,2.3,0.5c0.7,0.3,1.2,0.7,1.7,1.2
	c0.4,0.5,0.8,1.1,1,1.8C152.4,362.6,152.5,363.3,152.5,364z M161.1,360.1h-3.2v6.6c0,0.4,0,0.8,0.1,1s0.2,0.5,0.3,0.6
	c0.2,0.1,0.3,0.2,0.6,0.3c0.2,0,0.4,0.1,0.7,0.1c0.2,0,0.5,0,0.7-0.1c0.3-0.1,0.5-0.2,0.7-0.3l0.1,1.4c-0.3,0.1-0.6,0.2-0.9,0.2
	c-0.3,0.1-0.6,0.1-1,0.1c-0.3,0-0.6,0-1-0.1c-0.3-0.1-0.6-0.2-0.9-0.5s-0.5-0.5-0.7-0.9c-0.2-0.4-0.3-0.9-0.3-1.5v-7H154v-1.4h2.3
	v-3.2h1.6v3.2h3.2V360.1z"/>
<path class="st0" d="M115.3,394h-0.9l1.5-8.5h0.9L115.3,394z M119.1,385.5h2.3c0.8,0,1.5,0.2,1.9,0.5c0.5,0.4,0.7,0.9,0.7,1.5
	c0,0.4-0.1,0.8-0.2,1.1c-0.2,0.3-0.4,0.6-0.7,0.8c-0.3,0.2-0.6,0.4-1,0.5c-0.4,0.1-0.8,0.2-1.3,0.2h-1.6l-0.7,3.9h-0.9L119.1,385.5z
	 M119.3,389.3h1.6c0.7,0,1.3-0.1,1.7-0.4c0.4-0.3,0.6-0.7,0.6-1.3c0-0.5-0.2-0.9-0.5-1.1s-0.8-0.3-1.3-0.3h-1.5L119.3,389.3z"/>
<rect x="23.5" y="333.5" class="st3" width="193" height="71"/>
<path class="st4" d="M217,333l44-42v72l-44,42V333z"/>
<rect x="23.5" y="243.5" class="st1" width="193" height="71"/>
<path class="st5" d="M67,201h194l-44,42H23L67,201z"/>
<path class="st6" d="M217,243l44-42v72l-44,42V243z"/>
<rect x="23.5" y="153.5" class="st7" width="193" height="71"/>
<path class="st8" d="M67,111h194l-44,42H23L67,111z"/>
<path class="st9" d="M217,153l44-42v72l-44,42V153z"/>
<rect x="23.5" y="63.5" class="st10" width="193" height="71"/>
<path class="st11" d="M67,21h194l-44,42H23L67,21z"/>
<path class="st12" d="M217,63l44-42v72l-44,42V63z"/>
<text transform="matrix(1 0 0 1 65.7575 111)" class="st0 st13 st14">Application</text>
<text transform="matrix(1 0 0 1 73.6173 201)" class="st0 st13 st14">Transport</text>
<text transform="matrix(1 0 0 1 81.3273 291)" class="st0 st13 st14">Internet</text>
<text transform="matrix(1 0 0 1 56.7277 370.032)" class="st0 st13 st14">Network/Link</text>
</svg>
